HIERARCHY
ROOT Hips
{
	OFFSET 0.000000 35.082581 0.000000
	CHANNELS 6 Xposition Yposition Zposition Xrotation Yrotation Zrotation 
	JOINT Spine
	{
		OFFSET 0.000000 6.876099 0.125700
		CHANNELS 3 Xrotation Yrotation Zrotation
		JOINT Spine1
		{
			OFFSET 0.000000 5.730043 0.104720
			CHANNELS 3 Xrotation Yrotation Zrotation
			JOINT Spine1_split
			{
				OFFSET 0.000000 5.730043 0.104720
				CHANNELS 3 Xrotation Yrotation Zrotation
				JOINT Spine2
				{
					OFFSET 0.000000 5.730043 0.104720
					CHANNELS 3 Xrotation Yrotation Zrotation
					JOINT Neck
					{
						OFFSET 0.000000 10.314075 0.188496
						CHANNELS 3 Xrotation Yrotation Zrotation
						JOINT Head
						{
							OFFSET 0.000000 7.643700 -2.377400
							CHANNELS 3 Xrotation Yrotation Zrotation
							JOINT HeadTop_End
							{
								OFFSET 0.000000 43.788605 -13.619600
								CHANNELS 3 Xrotation Yrotation Zrotation
								End Site
								{
									OFFSET 0.000000 0.000000 0.000000
								}
							}
						}
					}
					JOINT LeftShoulder
					{
						OFFSET 2.196100 4.412489 0.087492
						CHANNELS 3 Xrotation Yrotation Zrotation
						JOINT LeftShoulder_split
						{
							OFFSET 2.196100 4.412489 0.087492
							CHANNELS 3 Xrotation Yrotation Zrotation
							JOINT LeftArm
							{
								OFFSET 8.771219 -2.981674 -0.026999
								CHANNELS 3 Xrotation Yrotation Zrotation
								JOINT LeftForeArm
								{
									OFFSET 8.512804 0.000000 -0.000000
									CHANNELS 3 Xrotation Yrotation Zrotation
									JOINT LeftHand
									{
										OFFSET 18.484802 0.000000 -0.000000
										CHANNELS 3 Xrotation Yrotation Zrotation
										JOINT LeftHandThumb1
										{
											OFFSET 2.499420 -1.158070 2.653252
											CHANNELS 3 Xrotation Yrotation Zrotation
											JOINT LeftHandThumb2
											{
												OFFSET 2.370079 -1.368366 1.368366
												CHANNELS 3 Xrotation Yrotation Zrotation
												JOINT LeftHandThumb3
												{
													OFFSET 2.676727 -1.545410 1.545409
													CHANNELS 3 Xrotation Yrotation Zrotation
													JOINT LeftHandThumb4
													{
														OFFSET 1.692226 -0.977005 0.977007
														CHANNELS 3 Xrotation Yrotation Zrotation
														End Site
														{
															OFFSET 0.000000 0.000000 0.000000
														}
													}
												}
											}
										}
										JOINT LeftHandIndex1
										{
											OFFSET 7.924831 -0.457527 2.345128
											CHANNELS 3 Xrotation Yrotation Zrotation
											JOINT LeftHandIndex2
											{
												OFFSET 3.643303 0.000000 0.000000
												CHANNELS 3 Xrotation Yrotation Zrotation
												JOINT LeftHandIndex3
												{
													OFFSET 3.810799 0.000000 0.000000
													CHANNELS 3 Xrotation Yrotation Zrotation
													JOINT LeftHandIndex4
													{
														OFFSET 2.403702 0.000000 0.000000
														CHANNELS 3 Xrotation Yrotation Zrotation
														End Site
														{
															OFFSET 0.000000 0.000000 0.000000
														}
													}
												}
											}
										}
										JOINT LeftHandMiddle1
										{
											OFFSET 8.563995 0.000000 -0.000000
											CHANNELS 3 Xrotation Yrotation Zrotation
											JOINT LeftHandMiddle2
											{
												OFFSET 3.861618 0.000000 0.000000
												CHANNELS 3 Xrotation Yrotation Zrotation
												JOINT LeftHandMiddle3
												{
													OFFSET 3.701603 0.000000 0.000000
													CHANNELS 3 Xrotation Yrotation Zrotation
													JOINT LeftHandMiddle4
													{
														OFFSET 2.322544 0.000000 0.000000
														CHANNELS 3 Xrotation Yrotation Zrotation
														End Site
														{
															OFFSET 0.000000 0.000000 0.000000
														}
													}
												}
											}
										}
										JOINT LeftHandRing1
										{
											OFFSET 8.426460 -0.424637 -3.286992
											CHANNELS 3 Xrotation Yrotation Zrotation
											JOINT LeftHandRing2
											{
												OFFSET 3.126408 0.000000 0.000000
												CHANNELS 3 Xrotation Yrotation Zrotation
												JOINT LeftHandRing3
												{
													OFFSET 3.085026 0.000000 0.000000
													CHANNELS 3 Xrotation Yrotation Zrotation
													JOINT LeftHandRing4
													{
														OFFSET 1.644005 0.000000 0.000000
														CHANNELS 3 Xrotation Yrotation Zrotation
														End Site
														{
															OFFSET 0.000000 0.000000 0.000000
														}
													}
												}
											}
										}
									}
								}
							}
						}
					}
					JOINT RightShoulder
					{
						OFFSET -2.196100 4.412496 0.070690
						CHANNELS 3 Xrotation Yrotation Zrotation
						JOINT RightShoulder_split
						{
							OFFSET -2.196100 4.412496 0.070690
							CHANNELS 3 Xrotation Yrotation Zrotation
							JOINT RightArm
							{
								OFFSET -8.771282 -2.981682 -0.094208
								CHANNELS 3 Xrotation Yrotation Zrotation
								JOINT RightForeArm
								{
									OFFSET -8.494598 0.000000 0.000000
									CHANNELS 3 Xrotation Yrotation Zrotation
									JOINT RightHand
									{
										OFFSET -18.483803 0.000000 0.000001
										CHANNELS 3 Xrotation Yrotation Zrotation
										JOINT RightHandThumb1
										{
											OFFSET -2.527351 -1.008072 2.575253
											CHANNELS 3 Xrotation Yrotation Zrotation
											JOINT RightHandThumb2
											{
												OFFSET -2.321518 -1.340328 1.340329
												CHANNELS 3 Xrotation Yrotation Zrotation
												JOINT RightHandThumb3
												{
													OFFSET -2.657753 -1.534454 1.534455
													CHANNELS 3 Xrotation Yrotation Zrotation
													JOINT RightHandThumb4
													{
														OFFSET -1.807510 -1.043568 1.043567
														CHANNELS 3 Xrotation Yrotation Zrotation
														End Site
														{
															OFFSET 0.000000 0.000000 0.000000
														}
													}
												}
											}
										}
										JOINT RightHandIndex1
										{
											OFFSET -8.811420 0.015533 2.887987
											CHANNELS 3 Xrotation Yrotation Zrotation
											JOINT RightHandIndex2
											{
												OFFSET -3.537502 0.000000 0.000000
												CHANNELS 3 Xrotation Yrotation Zrotation
												JOINT RightHandIndex3
												{
													OFFSET -3.356201 0.000000 0.000000
													CHANNELS 3 Xrotation Yrotation Zrotation
													JOINT RightHandIndex4
													{
														OFFSET -1.933098 0.000000 0.000000
														CHANNELS 3 Xrotation Yrotation Zrotation
														End Site
														{
															OFFSET 0.000000 0.000000 0.000000
														}
													}
												}
											}
										}
										JOINT RightHandMiddle1
										{
											OFFSET -8.178135 0.000000 0.000000
											CHANNELS 3 Xrotation Yrotation Zrotation
											JOINT RightHandMiddle2
											{
												OFFSET -3.901302 0.000000 0.000000
												CHANNELS 3 Xrotation Yrotation Zrotation
												JOINT RightHandMiddle3
												{
													OFFSET -3.909599 0.000000 0.000000
													CHANNELS 3 Xrotation Yrotation Zrotation
													JOINT RightHandMiddle4
													{
														OFFSET -2.376003 0.000000 0.000000
														CHANNELS 3 Xrotation Yrotation Zrotation
														End Site
														{
															OFFSET 0.000000 0.000000 0.000000
														}
													}
												}
											}
										}
										JOINT RightHandRing1
										{
											OFFSET -7.559013 0.014137 -2.865403
											CHANNELS 3 Xrotation Yrotation Zrotation
											JOINT RightHandRing2
											{
												OFFSET -3.449306 0.000000 0.000000
												CHANNELS 3 Xrotation Yrotation Zrotation
												JOINT RightHandRing3
												{
													OFFSET -3.362106 0.000000 0.000000
													CHANNELS 3 Xrotation Yrotation Zrotation
													JOINT RightHandRing4
													{
														OFFSET -2.076401 0.000000 0.000000
														CHANNELS 3 Xrotation Yrotation Zrotation
														End Site
														{
															OFFSET 0.000000 0.000000 0.000000
														}
													}
												}
											}
										}
									}
								}
							}
						}
					}
				}
			}
		}
	}
	JOINT LeftUpLeg
	{
		OFFSET 10.205400 -3.823500 0.155100
		CHANNELS 3 Xrotation Yrotation Zrotation
		JOINT LeftLeg
		{
			OFFSET 0.708757 -12.982077 0.567790
			CHANNELS 3 Xrotation Yrotation Zrotation
			JOINT LeftFoot
			{
				OFFSET -0.708756 -10.717838 -2.184338
				CHANNELS 3 Xrotation Yrotation Zrotation
				JOINT LeftToeBase
				{
					OFFSET 0.108149 -7.191104 7.560241
					CHANNELS 3 Xrotation Yrotation Zrotation
					JOINT LeftToe_End
					{
						OFFSET 0.070230 0.081724 4.490308
						CHANNELS 3 Xrotation Yrotation Zrotation
						End Site
						{
							OFFSET 0.000000 0.000000 0.000000
						}
					}
				}
			}
		}
	}
	JOINT RightUpLeg
	{
		OFFSET -10.205400 -3.823500 0.005500
		CHANNELS 3 Xrotation Yrotation Zrotation
		JOINT RightLeg
		{
			OFFSET -0.708756 -12.982134 0.610632
			CHANNELS 3 Xrotation Yrotation Zrotation
			JOINT RightFoot
			{
				OFFSET 0.708754 -10.717769 -1.945823
				CHANNELS 3 Xrotation Yrotation Zrotation
				JOINT RightToeBase
				{
					OFFSET -0.108140 -7.191069 7.372968
					CHANNELS 3 Xrotation Yrotation Zrotation
					JOINT RightToe_End
					{
						OFFSET -0.070227 0.081735 4.479403
						CHANNELS 3 Xrotation Yrotation Zrotation
						End Site
						{
							OFFSET 0.000000 0.000000 0.000000
						}
					}
				}
			}
		}
	}
}
MOTION
Frames: 4
Frame Time: 0.016667
0.633360 28.598579 -0.651480 9.498626 -61.495581 10.123697 15.063996 -0.448765 -4.270516 5.872399 0.563935 -2.798214 0.000000 0.000000 0.000000 5.868714 0.648184 -2.860162 -3.632888 1.437151 3.747492 -20.005957 54.836785 2.407369 0.000000 0.000000 0.000001 1.828098 -3.192677 -12.271605 0.000000 0.000000 0.000000 -39.387420 26.350491 -34.911108 0.429391 -46.808451 0.416230 -10.315077 -0.130718 0.363007 40.109931 -15.297167 -0.360479 5.639815 28.097909 11.338841 1.088584 40.896284 22.734051 -0.000000 0.000003 0.000001 6.882236 2.840058 -61.140411 8.247990 7.640098 -89.897878 2.146110 8.173446 -41.827730 -0.000003 0.000001 0.000000 -2.345519 4.688866 -62.655224 8.754142 9.897093 -87.051307 1.995383 4.929298 -37.483426 0.000003 -0.000001 -0.000000 -9.042479 10.045677 -60.766171 8.524087 9.508832 -66.893035 6.576576 9.896775 -70.385093 -0.000001 -0.000001 0.000001 0.632604 7.257361 8.700333 0.000000 0.000000 0.000000 7.936009 -9.680156 53.429903 -22.867437 36.194706 17.955459 -27.369922 10.432886 -17.813533 -2.346181 -6.100558 10.731429 2.364049 -23.806317 -8.771057 -5.012463 13.984838 5.861516 -0.000000 -0.000001 0.000003 -0.054757 0.532100 0.738728 0.019783 -0.087310 5.078499 -0.003987 -2.004395 -2.834029 0.000001 -0.000002 0.000003 0.348255 -5.918516 2.583820 1.432613 -4.204227 24.052100 0.133898 1.746466 -5.752996 -0.000000 -0.000001 0.000001 1.205828 -11.756069 4.154785 1.794839 -3.771872 26.865414 1.319779 -3.995363 19.486909 0.000000 0.000000 0.000000 -41.998147 3.740779 34.587439 44.708461 -12.167223 0.011671 -7.403613 0.866827 -25.254949 -1.836430 -0.000606 -0.000033 -0.000000 -0.000000 0.000000 -27.932077 -15.142642 -45.127804 44.468835 11.515031 -2.764036 -21.027506 -6.257981 32.367809 -0.001678 -0.000462 -0.000007 0.000000 -0.000000 0.000000 
0.575760 28.771263 -0.283427 9.305893 -61.770264 9.825760 15.060475 -0.472372 -4.261262 5.808923 0.512823 -2.771126 0.000000 0.000000 0.000000 5.805195 0.597264 -2.833454 -3.638484 1.536345 3.725360 -19.889622 54.758139 2.275292 -0.000000 0.000000 0.000001 1.811776 -3.211879 -12.344189 0.000000 0.000000 0.000000 -39.504131 26.319840 -34.529318 1.101672 -46.417942 0.952200 -9.885010 0.827930 1.334666 40.109927 -15.297156 -0.360485 5.639818 28.097902 11.338830 1.088585 40.896287 22.734059 -0.000002 0.000001 -0.000000 6.883829 2.854640 -61.141961 8.247983 7.640092 -89.897878 2.146110 8.173447 -41.827730 -0.000004 0.000001 0.000001 -2.345691 4.688784 -62.645293 8.754117 9.897083 -87.051355 1.995387 4.929296 -37.483422 0.000002 0.000002 0.000002 -9.042479 10.045681 -60.766171 8.524003 9.508685 -66.885802 6.576571 9.896778 -70.385093 -0.000002 0.000001 -0.000000 0.692445 7.427217 8.935617 0.000000 0.000000 0.000000 5.481167 -8.784163 52.938792 -21.606663 32.865644 15.936054 -24.516491 8.994992 -17.062798 -4.116516 -6.706667 9.307949 1.886945 -23.619574 -9.140352 -5.263938 12.857968 5.626040 -0.000001 0.000001 0.000002 -0.010642 0.533224 -1.327966 0.017480 -0.087293 5.720684 -0.003022 -2.008599 -2.593930 0.000000 0.000000 0.000004 0.409167 -5.946830 2.284654 1.424243 -4.181325 21.464418 0.132030 1.746951 -5.369375 0.000000 -0.000002 0.000001 0.746813 -11.971094 3.731585 1.819264 -3.840936 25.204783 1.315727 -3.996137 18.646232 -0.000000 0.000000 -0.000000 -41.234713 4.341801 34.254686 45.238518 -12.003409 0.036316 -8.636658 0.966967 -24.563838 -1.836429 -0.000607 -0.000034 -0.000000 0.000001 -0.000000 -26.317965 -14.063453 -44.303421 44.056178 9.699141 -2.329116 -19.352342 -6.713196 32.436616 -1.203021 -0.026706 0.534034 0.000000 -0.000000 -0.000000 
0.517010 28.947437 0.088413 9.106372 -62.046955 9.521493 15.049016 -0.542374 -4.220891 5.633807 0.369655 -2.696477 0.000000 0.000000 0.000000 5.629848 0.454786 -2.759861 -3.655637 1.814229 3.662543 -19.581881 54.532357 1.920063 0.000000 -0.000000 0.000000 1.851100 -3.205589 -12.196459 0.000000 0.000000 0.000000 -39.716628 26.246972 -34.186521 2.759073 -45.717431 2.309621 -9.601684 1.846977 2.522829 40.109927 -15.297160 -0.360487 5.639814 28.097902 11.338843 1.088588 40.896280 22.734047 -0.000001 0.000001 0.000001 6.885306 2.867590 -61.143239 8.247985 7.640092 -89.897878 2.146113 8.173443 -41.827730 0.000002 0.000001 0.000002 -2.345744 4.688761 -62.636359 8.754120 9.897093 -87.051246 1.995389 4.929295 -37.483426 0.000003 -0.000002 -0.000001 -9.042475 10.045683 -60.766171 8.523952 9.508556 -66.879327 6.576573 9.896768 -70.385099 -0.000000 0.000004 0.000003 0.772941 7.546829 9.119189 0.000000 0.000000 0.000000 2.943624 -7.711107 52.563469 -20.404009 29.266117 13.879037 -21.562931 7.631762 -16.206039 -6.237931 -7.289028 7.642160 1.335650 -23.383252 -9.554169 -5.535012 11.541967 5.314254 0.000001 0.000000 0.000005 0.036200 0.531758 -3.691432 0.018931 -0.086977 6.453115 -0.001987 -2.013323 -2.311770 -0.000000 0.000002 0.000002 0.478648 -5.980246 1.942306 1.420330 -4.160129 18.500778 0.129811 1.747685 -4.924493 0.000000 0.000001 0.000001 0.223190 -12.207952 3.248210 1.839702 -3.913911 23.324297 1.311353 -3.997697 17.693929 -0.000000 0.000000 -0.000000 -40.402420 4.958201 33.888093 45.666112 -11.792524 0.062442 -9.835366 1.046093 -23.891831 -1.836429 -0.000611 -0.000035 -0.000000 -0.000000 -0.000000 -24.768935 -12.958809 -43.535479 43.748161 7.868973 -1.877129 -17.623165 -7.178844 32.452042 -2.463877 -0.054689 1.093987 0.000000 -0.000000 -0.000000 
0.456388 29.123768 0.466776 8.911945 -62.317683 9.217564 15.028045 -0.649914 -4.153812 5.371683 0.150686 -2.585286 0.000000 0.000000 0.000000 5.367415 0.236855 -2.650284 -3.683366 2.240251 3.564169 -19.144236 54.178321 1.405938 0.000000 -0.000000 0.000000 1.843150 -3.270750 -12.215964 0.000000 0.000000 0.000000 -40.079045 26.019752 -33.554216 4.817937 -44.880487 3.995139 -9.298820 2.592853 3.380242 40.109931 -15.297158 -0.360482 5.639818 28.097902 11.338840 1.088580 40.896277 22.734049 0.000001 -0.000003 -0.000001 6.886541 2.878929 -61.144345 8.247984 7.640094 -89.897884 2.146108 8.173446 -41.827730 0.000000 0.000002 0.000005 -2.345671 4.688663 -62.628477 8.754125 9.897107 -87.051150 1.995389 4.929297 -37.483426 0.000005 -0.000002 -0.000004 -9.042476 10.045681 -60.766171 8.523896 9.508415 -66.873610 6.576571 9.896777 -70.385093 0.000000 0.000001 0.000003 0.851999 7.665280 9.321637 0.000000 0.000000 0.000000 0.526180 -6.652004 52.259075 -19.353580 25.785890 11.962581 -18.611740 6.402527 -15.306790 -8.268313 -7.739948 6.081486 0.815479 -23.164151 -9.941008 -5.806322 10.322225 4.998309 0.000004 -0.000003 0.000001 0.081629 0.527678 -5.928369 0.019933 -0.086705 7.147206 -0.000065 -2.014063 -2.047186 0.000001 0.000002 0.000005 0.550287 -6.015953 1.586680 1.422010 -4.150015 15.428274 0.127453 1.747964 -4.454201 0.000000 0.000001 0.000000 -0.337131 -12.451473 2.730648 1.855738 -3.992482 21.326388 1.307183 -4.000638 16.684216 -0.000000 -0.000000 -0.000000 -39.527746 5.574844 33.487646 46.032121 -11.543853 0.090523 -11.019220 1.107786 -23.232888 -1.836424 -0.000609 -0.000031 0.000000 0.000005 0.000000 -23.303101 -11.708180 -42.747743 43.644403 6.018265 -1.414750 -15.898560 -7.634478 32.362915 -3.681653 -0.086164 1.521074 0.000000 -0.000000 -0.000000 
